<?xml version="1.0" standalone="no"?><!DOCTYPE svg PUBLIC "-//W3C//DTD SVG 1.1//EN" "http://www.w3.org/Graphics/SVG/1.1/DTD/svg11.dtd"><svg class="icon" width="200px" height="200.00px" viewBox="0 0 1024 1024" version="1.1" xmlns="http://www.w3.org/2000/svg"><path fill="#333333" d="M661.328 117.328a32 32 0 0 1 31.92 29.616l0.08 2.4v64H896A42.672 42.672 0 0 1 938.672 256v597.328A42.672 42.672 0 0 1 896 896H128a42.672 42.672 0 0 1-42.672-42.672V256A42.672 42.672 0 0 1 128 213.328h202.656v-64a32 32 0 0 1 63.92-2.384l0.096 2.4v64h234.656v-64a32 32 0 0 1 32-32z m213.328 320H149.328V832h725.328V437.328zM752.048 668.48a24 24 0 0 1 2.304 47.888l-2.304 0.112H666.72a24 24 0 0 1-2.32-47.888l2.32-0.112h85.328z m-199.168 0a24 24 0 0 1 2.32 47.888l-2.32 0.112h-85.328a24 24 0 0 1-2.32-47.888l2.32-0.112h85.328z m-193.6 0a24 24 0 0 1 2.304 47.888l-2.304 0.112H273.92a24 24 0 0 1-2.304-47.888l2.304-0.112h85.344z m0-128a24 24 0 0 1 2.304 47.888l-2.304 0.112H273.92a24 24 0 0 1-2.304-47.888l2.304-0.112h85.344z m193.6 0a24 24 0 0 1 2.32 47.888l-2.32 0.112h-85.328a24 24 0 0 1-2.32-47.888l2.32-0.112h85.328z m199.168 0a24 24 0 0 1 2.304 47.888l-2.304 0.112H666.72a24 24 0 0 1-2.32-47.888l2.32-0.112h85.328zM330.656 277.312l-181.328 0.016v96h725.328v-96H693.328a32 32 0 0 1-63.904 2.4l-0.096-2.4H394.656a32 32 0 0 1-63.904 2.4l-0.08-2.4z" /></svg>