<?xml version="1.0" standalone="no"?><!DOCTYPE svg PUBLIC "-//W3C//DTD SVG 1.1//EN" "http://www.w3.org/Graphics/SVG/1.1/DTD/svg11.dtd"><svg class="icon" width="200px" height="200.00px" viewBox="0 0 1024 1024" version="1.1" xmlns="http://www.w3.org/2000/svg"><path fill="#333333" d="M517.328 101.328c229.76 0 416 186.24 416 416s-186.24 416-416 416-416-186.24-416-416 186.24-416 416-416z m0 64c-194.4 0-352 157.6-352 352s157.6 352 352 352 352-157.6 352-352-157.6-352-352-352zM738.368 369.12a32 32 0 0 1 2.4 43.2l-1.84 2.048-244.544 250.592a32 32 0 0 1-43.536 2.112l-2.064-1.904-142.624-143.504a32 32 0 0 1 43.36-46.992l2.032 1.872 119.712 120.464L693.12 369.648a32 32 0 0 1 45.248-0.544z" /></svg>