<?xml version="1.0" standalone="no"?><!DOCTYPE svg PUBLIC "-//W3C//DTD SVG 1.1//EN" "http://www.w3.org/Graphics/SVG/1.1/DTD/svg11.dtd"><svg class="icon" width="200px" height="200.00px" viewBox="0 0 1024 1024" version="1.1" xmlns="http://www.w3.org/2000/svg"><path fill="#333333" d="M512 96c229.76 0 416 186.24 416 416S741.76 928 512 928 96 741.76 96 512 282.24 96 512 96z m0 64c-194.4 0-352 157.6-352 352s157.6 352 352 352 352-157.6 352-352-157.6-352-352-352z m-16 117.68a32 32 0 0 1 31.92 29.6l0.08 2.4v230.256l121.312 122.336a32 32 0 0 1 1.696 43.232l-1.888 2.032a32 32 0 0 1-43.216 1.68l-2.032-1.872-125.952-127.008a48 48 0 0 1-13.792-30.352L464 546.544V309.68a32 32 0 0 1 32-32z" /></svg>