<?xml version="1.0" standalone="no"?><!DOCTYPE svg PUBLIC "-//W3C//DTD SVG 1.1//EN" "http://www.w3.org/Graphics/SVG/1.1/DTD/svg11.dtd"><svg class="icon" width="200px" height="200.00px" viewBox="0 0 1024 1024" version="1.1" xmlns="http://www.w3.org/2000/svg"><path fill="#333333" d="M608 128a64 64 0 0 1 64 64v64h240a32 32 0 1 1 0 64h-80v512a64 64 0 0 1-64 64H256a64 64 0 0 1-64-64V320H112a32 32 0 1 1 0-64h240v-64a64 64 0 0 1 64-64h192z m160 192H256v512h512V320z m-352 96a32 32 0 0 1 32 32v256a32 32 0 1 1-64 0V448a32 32 0 0 1 32-32z m192 0a32 32 0 0 1 32 32v256a32 32 0 1 1-64 0V448a32 32 0 0 1 32-32z m0-224H416v64h192v-64z" /></svg>