<?xml version="1.0" standalone="no"?><!DOCTYPE svg PUBLIC "-//W3C//DTD SVG 1.1//EN" "http://www.w3.org/Graphics/SVG/1.1/DTD/svg11.dtd"><svg class="icon" width="200px" height="200.00px" viewBox="0 0 1024 1024" version="1.1" xmlns="http://www.w3.org/2000/svg"><path fill="#333333" d="M896 560.048a32 32 0 0 1 31.92 29.6l0.08 2.4v160c0 51.28-38.368 94.016-87.616 95.936l-3.456 0.064H187.072c-49.744 0-89.248-41.568-91.008-92.432L96 752.048v-160a32 32 0 0 1 63.92-2.4l0.08 2.4v160c0 17.36 11.536 30.672 25.04 31.904l2.032 0.096h649.856c13.664 0 25.856-12.496 26.992-29.44l0.08-2.56v-160a32 32 0 0 1 32-32zM512 167.36c17.68 0 32 12.416 32 27.728l-0.016 315.264 126.624-126.64a32 32 0 0 1 45.264 45.264L534.848 610c-5.92 5.92-13.584 9.024-21.328 9.344h-2.592a31.888 31.888 0 0 1-21.344-9.344L308.576 428.96a32 32 0 0 1 45.248-45.264L480 509.92 480 195.088c0-15.312 14.32-27.728 32-27.728z" /></svg>