<?xml version="1.0" standalone="no"?><!DOCTYPE svg PUBLIC "-//W3C//DTD SVG 1.1//EN" "http://www.w3.org/Graphics/SVG/1.1/DTD/svg11.dtd"><svg class="icon" width="200px" height="200.00px" viewBox="0 0 1024 1024" version="1.1" xmlns="http://www.w3.org/2000/svg"><path fill="#333333" d="M537.424 88.448l1.92 1.936 107.888 117.84a32 32 0 0 1-45.248 45.168l-1.952-1.952-44.272-48.352v284.944h288.448l-52.496-50.656a32 32 0 0 1-2.64-43.184l1.824-2.08a32 32 0 0 1 43.184-2.624l2.08 1.824 117.808 113.712a32 32 0 0 1 1.344 44.688l-1.952 1.936-117.824 107.888a32 32 0 0 1-45.184-45.248l1.968-1.952 48.368-44.304H555.76v242.72l44.288-48.368 1.952-1.952a32 32 0 0 1 45.248 45.184l-107.888 117.824-1.92 1.936a32 32 0 0 1-44.704-1.328l-113.712-117.824-1.824-2.08a32 32 0 0 1 2.64-43.168l2.08-1.84a32 32 0 0 1 43.168 2.64l50.672 52.528V568.032H187.104l48.32 44.256 1.968 1.952a32 32 0 0 1-43.056 47.024l-2.112-1.776-117.84-107.888-1.92-1.92a32 32 0 0 1-0.576-42.72l1.888-1.984 117.84-113.712 2.064-1.824a32 32 0 0 1 41.168 0.736l2.016 1.904 1.824 2.08a32 32 0 0 1-0.736 41.168l-1.904 2-52.576 50.704h292.288V199.52l-50.688 52.528a32 32 0 0 1-43.168 2.64l-2.08-1.824a32 32 0 0 1-2.64-43.2l1.84-2.048 113.696-117.84a32 32 0 0 1 44.704-1.328z" /></svg>