<?xml version="1.0" standalone="no"?><!DOCTYPE svg PUBLIC "-//W3C//DTD SVG 1.1//EN" "http://www.w3.org/Graphics/SVG/1.1/DTD/svg11.dtd"><svg class="icon" width="200px" height="200.00px" viewBox="0 0 1024 1024" version="1.1" xmlns="http://www.w3.org/2000/svg"><path fill="#333333" d="M192 880a64 64 0 0 1-64-64V402.24a64 64 0 0 1 28.496-53.232l320-213.344a64 64 0 0 1 71.008 0l320 213.344A64 64 0 0 1 896 402.24V816a64 64 0 0 1-64 64H192z m320-691.088L192 402.256V816h176V560a64 64 0 0 1 64-64h160a64 64 0 0 1 64 64v256h176V402.24L512 188.928zM592 560H432v256h160V560z" /></svg>