<?xml version="1.0" standalone="no"?><!DOCTYPE svg PUBLIC "-//W3C//DTD SVG 1.1//EN" "http://www.w3.org/Graphics/SVG/1.1/DTD/svg11.dtd"><svg class="icon" width="200px" height="200.00px" viewBox="0 0 1024 1024" version="1.1" xmlns="http://www.w3.org/2000/svg"><path fill="#333333" d="M512.512 96a32 32 0 0 1 2.4 63.92l-2.4 0.08H192a32 32 0 0 0-31.92 29.6L160 192v640a32 32 0 0 0 29.6 31.92L192 864h640a32 32 0 0 0 31.92-29.6L864 832V510.4a32 32 0 0 1 63.92-2.4l0.08 2.4V832a96 96 0 0 1-92.4 95.936L832 928H192a96 96 0 0 1-95.936-92.4L96 832V192a96 96 0 0 1 92.4-95.936L192 96h320.512z m385.856 60.384a32 32 0 0 1-28.352 35.264c-210.304 22.912-318.224 172.96-325.408 462.08l126-126.016a32 32 0 0 1 45.264 45.264L534.848 754c-5.92 5.92-13.584 9.024-21.328 9.344h-2.592a31.888 31.888 0 0 1-21.344-9.344L308.576 572.96a32 32 0 0 1 45.248-45.264l126.752 126.768c7.616-320.064 135.68-499.568 382.512-526.448a32 32 0 0 1 35.28 28.352z" /></svg>