<?xml version="1.0" standalone="no"?><!DOCTYPE svg PUBLIC "-//W3C//DTD SVG 1.1//EN" "http://www.w3.org/Graphics/SVG/1.1/DTD/svg11.dtd"><svg class="icon" width="200px" height="200.00px" viewBox="0 0 1024 1024" version="1.1" xmlns="http://www.w3.org/2000/svg"><path fill="#333333" d="M416 544a64 64 0 0 1 64 64v224a64 64 0 0 1-64 64H192a64 64 0 0 1-64-64V608a64 64 0 0 1 64-64h224z m416 160a64 64 0 0 1 64 64v64a64 64 0 0 1-64 64H608a64 64 0 0 1-64-64v-64a64 64 0 0 1 64-64h224z m-416-96H192v224h224V608z m416 160H608v64h224v-64z m0-640a64 64 0 0 1 64 64v384a64 64 0 0 1-64 64H608a64 64 0 0 1-64-64V192a64 64 0 0 1 64-64h224z m0 64H608v384h224V192zM416 128a64 64 0 0 1 64 64v224a64 64 0 0 1-64 64H192a64 64 0 0 1-64-64V192a64 64 0 0 1 64-64h224z m0 64H192v224h224V192z" /></svg>