<?xml version="1.0" standalone="no"?><!DOCTYPE svg PUBLIC "-//W3C//DTD SVG 1.1//EN" "http://www.w3.org/Graphics/SVG/1.1/DTD/svg11.dtd"><svg class="icon" width="200px" height="200.00px" viewBox="0 0 1024 1024" version="1.1" xmlns="http://www.w3.org/2000/svg"><path fill="#333333" d="M848 184a32 32 0 0 1 2.4 63.92L848 248H176a32 32 0 0 1-2.4-63.92L176 184h672z m-320 304a32 32 0 0 1 2.4 63.92L528 552H176a32 32 0 0 1-2.4-63.92L176 488h352z m320 304a32 32 0 0 1 2.4 63.92L848 856H176a32 32 0 0 1-2.4-63.92L176 792h672z m-192-432v320l208-163.152L656 360z" /></svg>