<?xml version="1.0" standalone="no"?><!DOCTYPE svg PUBLIC "-//W3C//DTD SVG 1.1//EN" "http://www.w3.org/Graphics/SVG/1.1/DTD/svg11.dtd"><svg class="icon" width="200px" height="200.00px" viewBox="0 0 1024 1024" version="1.1" xmlns="http://www.w3.org/2000/svg"><path fill="#333333" d="M176 184a32 32 0 0 0-2.4 63.92l2.4 0.08h672a32 32 0 0 0 2.4-63.92L848 184H176z m320 304a32 32 0 0 0-2.4 63.92l2.4 0.08h352a32 32 0 0 0 2.4-63.92L848 488H496z m-320 304a32 32 0 0 0-2.4 63.92l2.4 0.08h672a32 32 0 0 0 2.4-63.92L848 792H176z m192-432v320L160 516.848 368 360z" /></svg>