<?xml version="1.0" standalone="no"?><!DOCTYPE svg PUBLIC "-//W3C//DTD SVG 1.1//EN" "http://www.w3.org/Graphics/SVG/1.1/DTD/svg11.dtd"><svg class="icon" width="200px" height="200.00px" viewBox="0 0 1024 1024" version="1.1" xmlns="http://www.w3.org/2000/svg"><path fill="#333333" d="M496 80c229.76 0 416 186.24 416 416 0 53.408-10.064 104.448-28.4 151.36L930.24 848.96a64 64 0 0 1-81.088 75.616l-173.664-53.152A414.368 414.368 0 0 1 496 912C266.24 912 80 725.76 80 496S266.24 80 496 80z m0 64C301.6 144 144 301.6 144 496s157.6 352 352 352c50.368 0 99.136-10.56 143.952-30.672l7.872-3.648 22.512-10.784L867.84 863.36 816.8 642.496l7.2-18.432A350.928 350.928 0 0 0 848 496c0-194.4-157.6-352-352-352zM304 432a64 64 0 1 1 0 128 64 64 0 0 1 0-128z m192 0a64 64 0 1 1 0 128 64 64 0 0 1 0-128z m192 0a64 64 0 1 1 0 128 64 64 0 0 1 0-128z" /></svg>