<?xml version="1.0" standalone="no"?><!DOCTYPE svg PUBLIC "-//W3C//DTD SVG 1.1//EN" "http://www.w3.org/Graphics/SVG/1.1/DTD/svg11.dtd"><svg class="icon" width="200px" height="200.00px" viewBox="0 0 1024 1024" version="1.1" xmlns="http://www.w3.org/2000/svg"><path fill="#333333" d="M512 80c238.592 0 432 193.408 432 432S750.592 944 512 944 80 750.592 80 512 273.408 80 512 80z m0 64C308.752 144 144 308.752 144 512s164.752 368 368 368 368-164.752 368-368S715.248 144 512 144z m224 336a32 32 0 1 1 0 64H288a32 32 0 1 1 0-64h448z" /></svg>