<?xml version="1.0" standalone="no"?><!DOCTYPE svg PUBLIC "-//W3C//DTD SVG 1.1//EN" "http://www.w3.org/Graphics/SVG/1.1/DTD/svg11.dtd"><svg class="icon" width="200px" height="200.00px" viewBox="0 0 1024 1024" version="1.1" xmlns="http://www.w3.org/2000/svg"><path fill="#333333" d="M812 128a84 84 0 0 1 83.936 80.544l0.064 3.456v600a84 84 0 0 1-80.544 83.936L812 896h-600a84 84 0 0 1-83.936-80.544L128 812v-600a84 84 0 0 1 80.544-83.936L212 128h600z m0 51.2h-600a32.8 32.8 0 0 0-32.704 30.352l-0.096 2.448v600a32.8 32.8 0 0 0 30.352 32.704l2.448 0.096h600a32.8 32.8 0 0 0 32.704-30.352l0.096-2.448v-600a32.8 32.8 0 0 0-30.352-32.704l-2.448-0.096z m-119.296 308.576c13.248 0 24 11.456 24 25.6 0 13.296-9.52 24.24-21.696 25.472l-2.304 0.128h-365.6c-13.28 0-24-11.472-24-25.6 0-13.312 9.504-24.256 21.68-25.488l2.304-0.112h365.6z" /></svg>