<?xml version="1.0" standalone="no"?><!DOCTYPE svg PUBLIC "-//W3C//DTD SVG 1.1//EN" "http://www.w3.org/Graphics/SVG/1.1/DTD/svg11.dtd"><svg class="icon" width="200px" height="200.00px" viewBox="0 0 1024 1024" version="1.1" xmlns="http://www.w3.org/2000/svg"><path fill="#333333" d="M812 128a84 84 0 0 1 83.936 80.544l0.064 3.456v600a84 84 0 0 1-80.544 83.936L812 896h-600a84 84 0 0 1-83.936-80.544L128 812v-600a84 84 0 0 1 80.544-83.936L212 128h600z m0 51.2h-600a32.8 32.8 0 0 0-32.704 30.352l-0.096 2.448v600a32.8 32.8 0 0 0 30.352 32.704l2.448 0.096h600a32.8 32.8 0 0 0 32.704-30.352l0.096-2.448v-600a32.8 32.8 0 0 0-30.352-32.704l-2.448-0.096zM512 306.496c13.312 0 24.24 9.504 25.472 21.68l0.128 2.32-0.016 157.264h155.12c13.248 0 24 11.472 24 25.6 0 13.312-9.52 24.256-21.696 25.488l-2.304 0.128-155.12-0.016v158.176c0 13.248-11.456 24-25.6 24-13.296 0-24.224-9.52-25.472-21.696l-0.112-2.304-0.016-158.176h-159.296c-13.248 0-24-11.456-24-25.6 0-13.296 9.52-24.24 21.696-25.472l2.304-0.112 159.312-0.016v-157.28c0-13.248 11.456-24 25.6-24z" /></svg>