<?xml version="1.0" standalone="no"?><!DOCTYPE svg PUBLIC "-//W3C//DTD SVG 1.1//EN" "http://www.w3.org/Graphics/SVG/1.1/DTD/svg11.dtd"><svg class="icon" width="200px" height="200.00px" viewBox="0 0 1024 1024" version="1.1" xmlns="http://www.w3.org/2000/svg"><path fill="#333333" d="M459.36 192l-85.344 169.152a6.512 6.512 0 0 1-4.912 3.488l-190.848 27.12a59.168 59.168 0 0 0-33.6 16.736 56.512 56.512 0 0 0 1.072 81.184l138.096 131.648c1.536 1.472 2.24 3.584 1.872 5.648l-32.592 185.92a56.304 56.304 0 0 0 5.888 36.4c15.088 28.064 50.56 38.848 79.264 24.096l170.72-87.776a6.656 6.656 0 0 1 6.048 0l170.72 87.776a59.84 59.84 0 0 0 37.216 5.76c31.952-5.344 53.408-35.024 47.936-66.272l-32.608-185.904a6.288 6.288 0 0 1 1.872-5.648l138.112-131.648a56.96 56.96 0 0 0 17.12-32.864c4.64-31.36-17.568-60.48-49.648-65.056L654.88 364.64a6.512 6.512 0 0 1-4.912-3.488l-85.36-169.136a58.064 58.064 0 0 0-26.656-26.08c-29.072-14.032-64.256-2.352-78.608 26.08z m55.52 19.68c1.28 0.64 2.336 1.648 2.96 2.912L603.2 383.728a58.608 58.608 0 0 0 44.192 31.408L838.24 442.24a6.4 6.4 0 0 1 5.52 7.232 6.336 6.336 0 0 1-1.92 3.648l-138.08 131.664a56.624 56.624 0 0 0-16.896 50.8l32.608 185.92a6.4 6.4 0 0 1-5.328 7.36 6.656 6.656 0 0 1-4.128-0.64l-170.72-87.776a59.856 59.856 0 0 0-54.608 0l-170.72 87.776a6.592 6.592 0 0 1-8.8-2.688 6.256 6.256 0 0 1-0.64-4.048l32.592-185.904a56.624 56.624 0 0 0-16.88-50.8l-138.096-131.664a6.272 6.272 0 0 1-0.128-9.024 6.56 6.56 0 0 1 3.744-1.856l190.848-27.12a58.608 58.608 0 0 0 44.192-31.408l85.344-169.136a6.56 6.56 0 0 1 7.504-3.36l1.232 0.464z" /></svg>