<?xml version="1.0" standalone="no"?><!DOCTYPE svg PUBLIC "-//W3C//DTD SVG 1.1//EN" "http://www.w3.org/Graphics/SVG/1.1/DTD/svg11.dtd"><svg class="icon" width="200px" height="200.00px" viewBox="0 0 1024 1024" version="1.1" xmlns="http://www.w3.org/2000/svg"><path fill="#333333" d="M818.64 799.712l2.304 2.112 96.464 96.432a36.16 36.16 0 0 1-48.864 53.264l-2.304-2.112-96.464-96.432a36.16 36.16 0 0 1 48.864-53.264zM483.088 80c215.664 0 387.072 175.312 387.072 395.872S698.752 871.744 483.088 871.744C267.408 871.744 96 696.432 96 475.872S267.424 80 483.088 80z m0 72.32c-175.344 0-314.736 142.576-314.736 323.552 0 180.976 139.392 323.552 314.72 323.552 175.344 0 314.752-142.576 314.752-323.552 0-180.96-139.408-323.536-314.736-323.536zM640 448a32 32 0 1 1 0 64H320a32 32 0 1 1 0-64h320z" /></svg>