<?xml version="1.0" standalone="no"?><!DOCTYPE svg PUBLIC "-//W3C//DTD SVG 1.1//EN" "http://www.w3.org/Graphics/SVG/1.1/DTD/svg11.dtd"><svg class="icon" width="200px" height="200.00px" viewBox="0 0 1024 1024" version="1.1" xmlns="http://www.w3.org/2000/svg"><path fill="#B1B4C5" d="M128 160h128a32 32 0 1 1 0 64H128a32 32 0 1 1 0-64z m0 320h128a32 32 0 1 1 0 64H128a32 32 0 1 1 0-64z m0 320h128a32 32 0 1 1 0 64H128a32 32 0 1 1 0-64z m320-640h448a32 32 0 1 1 0 64H448a32 32 0 1 1 0-64z m0 320h448a32 32 0 1 1 0 64H448a32 32 0 1 1 0-64z m0 320h448a32 32 0 1 1 0 64H448a32 32 0 1 1 0-64z" /></svg>