<?xml version="1.0" standalone="no"?><!DOCTYPE svg PUBLIC "-//W3C//DTD SVG 1.1//EN" "http://www.w3.org/Graphics/SVG/1.1/DTD/svg11.dtd"><svg class="icon" width="200px" height="200.00px" viewBox="0 0 1024 1024" version="1.1" xmlns="http://www.w3.org/2000/svg"><path fill="#B1B4C5" d="M512 96c229.76 0 416 186.24 416 416S741.76 928 512 928 96 741.76 96 512 282.24 96 512 96z m220.704 276.672a31.2 31.2 0 0 0-44.112 0.544l-216.32 221.648-116.704-117.44-1.984-1.84a31.2 31.2 0 0 0-42.288 45.824l139.072 139.92 2 1.856a31.2 31.2 0 0 0 42.464-2.064l238.416-244.32 1.808-2.016a31.2 31.2 0 0 0-2.352-42.112z" /></svg>