<?xml version="1.0" standalone="no"?><!DOCTYPE svg PUBLIC "-//W3C//DTD SVG 1.1//EN" "http://www.w3.org/Graphics/SVG/1.1/DTD/svg11.dtd"><svg class="icon" width="200px" height="200.00px" viewBox="0 0 1024 1024" version="1.1" xmlns="http://www.w3.org/2000/svg"><path fill="#B1B4C5" d="M512 146.375c201.9375 0 365.625 163.6875 365.625 365.625S713.9375 877.625 512 877.625 146.375 713.9375 146.375 512 310.0625 146.375 512 146.375z m193.978125 243.16875a27.421875 27.421875 0 0 0-38.7703125 0.478125l-190.125 194.8078125-102.571875-103.21875-1.74375-1.6171875a27.421875 27.421875 0 0 0-37.1671875 40.275l122.23125 122.9765625 1.7578125 1.63125a27.421875 27.421875 0 0 0 37.321875-1.8140625l209.5453125-214.734375 1.5890625-1.771875a27.421875 27.421875 0 0 0-2.0671875-37.0125z" /></svg>
