<?xml version="1.0" standalone="no"?><!DOCTYPE svg PUBLIC "-//W3C//DTD SVG 1.1//EN" "http://www.w3.org/Graphics/SVG/1.1/DTD/svg11.dtd"><svg class="icon" width="200px" height="200.00px" viewBox="0 0 1024 1024" version="1.1" xmlns="http://www.w3.org/2000/svg"><path fill="#B1B4C5" d="M516.6828125 151.0578125c201.9375 0 365.625 163.6875 365.625 365.625s-163.6875 365.625-365.625 365.625-365.625-163.6875-365.625-365.625 163.6875-365.625 365.625-365.625z m-114.046875 217.9546875a28.125 28.125 0 0 0-39.796875 39.76875l114.046875 114.046875-114.046875 114.0609375a28.125 28.125 0 0 0-1.63125 37.9828125l1.6453125 1.8a28.125 28.125 0 0 0 39.76875 0l114.046875-114.075 114.0609375 114.075a28.125 28.125 0 0 0 37.9828125 1.6453125l1.8-1.6453125a28.125 28.125 0 0 0 0-39.7828125l-114.075-114.046875 114.075-114.046875a28.125 28.125 0 0 0 1.63125-37.996875l-1.63125-1.7859375a28.125 28.125 0 0 0-39.7828125 0l-114.046875 114.046875z" /></svg>
