<?xml version="1.0" standalone="no"?><!DOCTYPE svg PUBLIC "-//W3C//DTD SVG 1.1//EN" "http://www.w3.org/Graphics/SVG/1.1/DTD/svg11.dtd"><svg class="icon" width="200px" height="200.00px" viewBox="0 0 1024 1024" version="1.1" xmlns="http://www.w3.org/2000/svg"><path fill="#B1B4C5" d="M928 512C928 282.24 741.76 96 512 96S96 282.24 96 512s186.24 416 416 416 416-186.24 416-416zM153.376 512C153.376 313.936 313.936 153.376 512 153.376c198.064 0 358.624 160.56 358.624 358.624 0 198.064-160.56 358.624-358.624 358.624C313.936 870.624 153.376 710.064 153.376 512z m245.488-158.4a32 32 0 0 0-45.248 0l-1.632 1.76a32 32 0 0 0 1.632 43.504L466.72 512l-113.12 113.136a32 32 0 0 0 0 45.264l1.76 1.616a32 32 0 0 0 43.488-1.616L512 557.248 625.12 670.4a32 32 0 0 0 45.264 0l1.616-1.76a32 32 0 0 0-1.616-43.504L557.232 512l113.168-113.136a32 32 0 0 0 0-45.248l-1.76-1.632a32 32 0 0 0-43.504 1.632L512 466.72l-113.12-113.12z" /></svg>