<?xml version="1.0" standalone="no"?><!DOCTYPE svg PUBLIC "-//W3C//DTD SVG 1.1//EN" "http://www.w3.org/Graphics/SVG/1.1/DTD/svg11.dtd"><svg class="icon" width="200px" height="200.00px" viewBox="0 0 1024 1024" version="1.1" xmlns="http://www.w3.org/2000/svg"><path fill="#B1B4C5" d="M517.328 101.328c229.76 0 416 186.24 416 416s-186.24 416-416 416-416-186.24-416-416 186.24-416 416-416z m-129.76 247.984a32 32 0 0 0-45.28 45.248l129.76 129.76-129.76 129.776a32 32 0 0 0-1.856 43.216l1.872 2.048a32 32 0 0 0 45.248 0l129.76-129.792 129.776 129.792a32 32 0 0 0 43.216 1.872l2.048-1.872a32 32 0 0 0 0-45.264l-129.792-129.76 129.792-129.76a32 32 0 0 0 1.856-43.232l-1.856-2.032a32 32 0 0 0-45.264 0l-129.76 129.76z" /></svg>