<?xml version="1.0" standalone="no"?><!DOCTYPE svg PUBLIC "-//W3C//DTD SVG 1.1//EN" "http://www.w3.org/Graphics/SVG/1.1/DTD/svg11.dtd"><svg t="1734399597788" class="icon" viewBox="0 0 1024 1024" version="1.1" xmlns="http://www.w3.org/2000/svg" p-id="2659" width="200" height="200" xmlns:xlink="http://www.w3.org/1999/xlink"><path d="M704 96a96 96 0 0 1 96 96v16h32a96 96 0 0 1 96 96v512a96 96 0 0 1-96 96H320a96 96 0 0 1-96-96v-16h-32a96 96 0 0 1-95.936-92.4L96 704V192a96 96 0 0 1 96-96z m96 608a96 96 0 0 1-96 96H288v16a32 32 0 0 0 32 32h512a32 32 0 0 0 32-32V304a32 32 0 0 0-32-32h-32z m-96-544H192a32 32 0 0 0-32 32v512a32 32 0 0 0 32 32h512a32 32 0 0 0 32-32V192a32 32 0 0 0-32-32z m-256 64a32 32 0 0 1 32 32v160h160a32 32 0 1 1 0 64H480v160a32 32 0 1 1-64 0V480H256a32 32 0 1 1 0-64h160V256a32 32 0 0 1 32-32z" p-id="2660" fill="#B1B4C5"></path></svg>
