<?xml version="1.0" standalone="no"?><!DOCTYPE svg PUBLIC "-//W3C//DTD SVG 1.1//EN" "http://www.w3.org/Graphics/SVG/1.1/DTD/svg11.dtd"><svg class="icon" width="200px" height="200.00px" viewBox="0 0 1024 1024" version="1.1" xmlns="http://www.w3.org/2000/svg"><path fill="#B1B4C5" d="M596.375 174.5a56.25 56.25 0 0 1 56.25 56.25v56.25h210.9375a28.125 28.125 0 1 1 0 56.25h-70.3125v450a56.25 56.25 0 0 1-56.25 56.25H287a56.25 56.25 0 0 1-56.25-56.25V343.25H160.4375a28.125 28.125 0 1 1 0-56.25h210.9375v-56.25a56.25 56.25 0 0 1 56.25-56.25h168.75z m140.625 168.75H287v450h450V343.25z m-309.375 84.375a28.125 28.125 0 0 1 28.125 28.125v225a28.125 28.125 0 1 1-56.25 0V455.75a28.125 28.125 0 0 1 28.125-28.125z m168.75 0a28.125 28.125 0 0 1 28.125 28.125v225a28.125 28.125 0 1 1-56.25 0V455.75a28.125 28.125 0 0 1 28.125-28.125z m0-196.875H427.625v56.25h168.75v-56.25z" /></svg>
