<?xml version="1.0" standalone="no"?><!DOCTYPE svg PUBLIC "-//W3C//DTD SVG 1.1//EN" "http://www.w3.org/Graphics/SVG/1.1/DTD/svg11.dtd"><svg class="icon" width="200px" height="200.00px" viewBox="0 0 1024 1024" version="1.1" xmlns="http://www.w3.org/2000/svg"><path fill="#B1B4C5" d="M545.504 127.232a32 32 0 0 0-45.248 45.264l339.392 339.408-339.392 339.408a32 32 0 0 0 45.248 45.248l362.048-362.032a32 32 0 0 0 0-45.264z m-384 0a32 32 0 0 0-45.248 45.264l339.392 339.408L116.256 851.312a32 32 0 0 0 45.248 45.248l362.048-362.032a32 32 0 0 0 0-45.264z" /></svg>