<?xml version="1.0" standalone="no"?><!DOCTYPE svg PUBLIC "-//W3C//DTD SVG 1.1//EN" "http://www.w3.org/Graphics/SVG/1.1/DTD/svg11.dtd"><svg class="icon" width="200px" height="200.00px" viewBox="0 0 1024 1024" version="1.1" xmlns="http://www.w3.org/2000/svg"><path fill="#B1B4C5" d="M478.288 127.232a32 32 0 0 1 45.264 45.264L184.144 511.904l339.408 339.408a32 32 0 0 1-45.264 45.248L116.256 534.528a32 32 0 0 1 0-45.264z m384 0a32 32 0 0 1 45.264 45.264L568.144 511.904l339.408 339.408a32 32 0 0 1-45.264 45.248L500.256 534.528a32 32 0 0 1 0-45.264z" /></svg>