<?xml version="1.0" standalone="no"?><!DOCTYPE svg PUBLIC "-//W3C//DTD SVG 1.1//EN" "http://www.w3.org/Graphics/SVG/1.1/DTD/svg11.dtd"><svg class="icon" width="200px" height="200.00px" viewBox="0 0 1024 1024" version="1.1" xmlns="http://www.w3.org/2000/svg"><path fill="#B1B4C5" d="M876.736 864a32 32 0 0 1 2.4 63.92l-2.4 0.08H149.328a32 32 0 0 1-2.384-63.92l2.4-0.08h727.392zM653.536 105.392L212.016 547.408a32 32 0 0 0-9.36 22.624v155.296a32 32 0 0 0 32 32h156.096a32 32 0 0 0 22.624-9.376l441.248-441.424a32 32 0 0 0 0-45.248l-155.84-155.904a32 32 0 0 0-45.28 0z m22.624 67.872l110.592 110.64-409.248 409.424h-110.848v-110.08L676.16 173.264z" /></svg>