<?xml version="1.0" standalone="no"?><!DOCTYPE svg PUBLIC "-//W3C//DTD SVG 1.1//EN" "http://www.w3.org/Graphics/SVG/1.1/DTD/svg11.dtd"><svg class="icon" width="200px" height="200.00px" viewBox="0 0 1024 1024" version="1.1" xmlns="http://www.w3.org/2000/svg"><path fill="#B1B4C5" d="M512 877.625C310.090625 877.625 146.375 713.909375 146.375 512 146.375 310.034375 310.090625 146.375 512 146.375s365.625 163.659375 365.625 365.625c0 201.909375-163.715625 365.625-365.625 365.625z m0-491.034375a36.5625 36.5625 0 1 0 0.0140625-73.1109375A36.5625 36.5625 0 0 0 512 386.590625z m-0.0421875 323.9015625c14.484375 0 26.296875-11.165625 27.3375-25.36875l0.084375-2.053125v-219.375a27.421875 27.421875 0 0 0-54.7734375-2.053125l-0.0703125 2.053125v219.375a27.421875 27.421875 0 0 0 27.421875 27.421875z" /></svg>
