<?xml version="1.0" standalone="no"?><!DOCTYPE svg PUBLIC "-//W3C//DTD SVG 1.1//EN" "http://www.w3.org/Graphics/SVG/1.1/DTD/svg11.dtd"><svg class="icon" width="200px" height="200.00px" viewBox="0 0 1024 1024" version="1.1" xmlns="http://www.w3.org/2000/svg"><path fill="#B1B4C5" d="M512 928C282.272 928 96 741.728 96 512 96 282.208 282.272 96 512 96s416 186.208 416 416c0 229.728-186.272 416-416 416z m0-558.688a41.6 41.6 0 1 0 0.016-83.184A41.6 41.6 0 0 0 512 369.312z m-0.048 368.528c16.48 0 29.92-12.704 31.104-28.864l0.096-2.336v-249.6a31.2 31.2 0 0 0-62.32-2.336l-0.08 2.336v249.6a31.2 31.2 0 0 0 31.2 31.2z" /></svg>