<?xml version="1.0" standalone="no"?><!DOCTYPE svg PUBLIC "-//W3C//DTD SVG 1.1//EN" "http://www.w3.org/Graphics/SVG/1.1/DTD/svg11.dtd"><svg class="icon" width="200px" height="200.00px" viewBox="0 0 1024 1024" version="1.1" xmlns="http://www.w3.org/2000/svg"><path fill="#B1B4C5" d="M517.328 101.328c229.744 0 416 186.224 416 416 0 229.744-186.256 416-416 416-229.728 0-416-186.256-416-416 0-229.776 186.272-416 416-416z m0 64c-194.4 0-352 157.584-352 352 0 194.4 157.616 352 352 352 194.4 0 352-157.6 352-352 0-194.416-157.6-352-352-352z m-4.832 262.608a32 32 0 0 1 32 32v256a32 32 0 1 1-64 0v-256c0-17.712 14.304-32 32-32zM512 278.88a42.656 42.656 0 1 1 0 85.328 42.656 42.656 0 1 1 0-85.328z" /></svg>