<?xml version="1.0" standalone="no"?><!DOCTYPE svg PUBLIC "-//W3C//DTD SVG 1.1//EN" "http://www.w3.org/Graphics/SVG/1.1/DTD/svg11.dtd"><svg class="icon" width="200px" height="200.00px" viewBox="0 0 1024 1024" version="1.1" xmlns="http://www.w3.org/2000/svg"><path fill="#B1B4C5" d="M648.608 114.336a93.328 93.328 0 0 1 93.28 89.76l0.064 3.568v107.456a32 32 0 0 1-63.92 2.4l-0.08-2.4v-107.456c0-15.392-11.856-28-26.928-29.232l-2.4-0.096H219.264c-15.392 0-28 11.84-29.232 26.928l-0.096 2.4v613.344c0 15.376 11.84 28 26.928 29.232l2.4 0.096h429.328c15.392 0 28.016-11.84 29.248-26.928l0.096-2.4V709.92a32 32 0 0 1 63.904-2.4l0.096 2.4v111.088a93.328 93.328 0 0 1-89.76 93.264l-3.584 0.064H219.28a93.328 93.328 0 0 1-93.28-89.76l-0.048-3.584V207.68a93.328 93.328 0 0 1 89.76-93.264l3.568-0.064h429.328z m269.04 398.864v0.16a32.16 32.16 0 0 1-0.608 4.96l-0.048 0.208a31.968 31.968 0 0 1-8.64 16.032l-0.128 0.144-126.832 126.048a32 32 0 0 1-46.992-43.36l1.888-2.032L808.064 544H500.16a32 32 0 0 1-2.4-63.92l2.4-0.08h307.92l-71.792-71.36a32 32 0 0 1 43.072-47.248l2.032 1.856 126.832 126.048 0.144 0.16a32.288 32.288 0 0 1 8 13.488l0.048 0.192a32.016 32.016 0 0 1 1.008 4.896l0.016 0.192c0.112 0.864 0.16 1.712 0.208 2.576v2.4z" /></svg>