<?xml version="1.0" standalone="no"?><!DOCTYPE svg PUBLIC "-//W3C//DTD SVG 1.1//EN" "http://www.w3.org/Graphics/SVG/1.1/DTD/svg11.dtd"><svg class="icon" width="200px" height="200.00px" viewBox="0 0 1024 1024" version="1.1" xmlns="http://www.w3.org/2000/svg"><path fill="#B1B4C5" d="M148.592 103.504l2.032 1.872 142.048 142.016A456.8 456.8 0 0 1 512 191.904c141.824 0 273.568 64.864 364.992 175.488 68 81.6 68 207.616 0 289.216a504.656 504.656 0 0 1-90.368 84.752l132 132a32 32 0 0 1-43.216 47.136l-2.032-1.872-156.752-156.704a32 32 0 0 1-1.072-0.848l-2.016-1.872-436.8-437.184L105.392 150.624A32 32 0 0 1 148.592 103.52z m66.592 237.056a32 32 0 0 1 1.216 45.248l-8.8 9.376-3.328 3.664-4.24 4.832-3.856 4.688c-48.24 57.888-48.24 149.04 0.08 207.36 79.6 96.32 193.44 152.368 315.744 152.368 33.888 0 66.016-3.92 96.576-11.84a32 32 0 0 1 16.064 61.952c-35.92 9.312-73.44 13.888-112.64 13.888-141.824 0-273.568-64.864-365.056-175.552-66.752-80.576-67.92-203.168-3.84-284.352l6.592-8.096 4.768-5.568 5.568-6.176 9.92-10.56a32 32 0 0 1 45.232-1.232zM512 255.904c-54.992 0-107.888 11.024-156.88 32.208l-8.128 3.616-6.8 3.2 54.832 54.832 3.36-2.384A199.072 199.072 0 0 1 512 312c110.464 0 200 89.536 200 200 0 43.68-14 84.096-37.76 116.976l66.448 66.448 2.72-1.856a439.456 439.456 0 0 0 71.104-62.672l7.04-7.904 6.272-7.36c48.24-57.872 48.24-149.392-0.08-207.36-79.6-96.32-193.44-152.368-315.744-152.368z m0 122.24a133.6 133.6 0 0 0-69.328 19.248l183.984 184 1.76-2.96A133.104 133.104 0 0 0 646.08 512c0-73.888-59.984-133.872-134.08-133.872z" /></svg>