<?xml version="1.0" standalone="no"?><!DOCTYPE svg PUBLIC "-//W3C//DTD SVG 1.1//EN" "http://www.w3.org/Graphics/SVG/1.1/DTD/svg11.dtd"><svg class="icon" width="200px" height="200.00px" viewBox="0 0 1024 1024" version="1.1" xmlns="http://www.w3.org/2000/svg"><path fill="#B1B4C5" d="M512 312c110.464 0 200 89.536 200 200S622.464 712 512 712 312 622.464 312 512 401.536 312 512 312z m0 66.128c-74.096 0-134.08 60-134.08 133.872 0 73.888 59.984 133.872 134.08 133.872s134.08-60 134.08-133.872c0-73.888-59.984-133.872-134.08-133.872zM512 192c-141.52 0-273.296 64.976-365.04 175.472-67.936 82-67.936 207.04 0 289.024C239.008 767.312 370.32 832 512 832c141.52 0 273.296-64.976 365.04-175.472 67.936-82 67.936-207.04 0-289.024C784.992 256.688 653.68 192 512 192z m0 64c122.176 0 235.648 55.904 315.792 152.368 48.288 58.256 48.288 149.008-0.016 207.296C747.936 711.824 634.016 768 512 768c-122.176 0-235.648-55.904-315.792-152.368-48.288-58.256-48.288-149.008 0.016-207.296C276.064 312.176 389.984 256 512 256z" /></svg>