<?xml version="1.0" standalone="no"?><!DOCTYPE svg PUBLIC "-//W3C//DTD SVG 1.1//EN" "http://www.w3.org/Graphics/SVG/1.1/DTD/svg11.dtd"><svg class="icon" width="200px" height="200.00px" viewBox="0 0 1024 1024" version="1.1" xmlns="http://www.w3.org/2000/svg"><path fill="#B1B4C5" d="M768 176H256c-27.2 0-48 20.8-48 48v28.8c0 12.8 4.8 24 12.8 32L432 480c9.6 9.6 16 22.4 16 35.2v238.4c0 15.008 7.04 30 19.776 38.4l83.968 50.592A16 16 0 0 0 576 828.88V515.2c0-12.8 6.4-25.6 16-35.2l211.2-195.2c8-9.6 12.8-20.8 12.8-32V224c0-27.2-20.8-48-48-48z" /></svg>