<?xml version="1.0" standalone="no"?><!DOCTYPE svg PUBLIC "-//W3C//DTD SVG 1.1//EN" "http://www.w3.org/Graphics/SVG/1.1/DTD/svg11.dtd"><svg class="icon" width="200px" height="200.00px" viewBox="0 0 1024 1024" version="1.1" xmlns="http://www.w3.org/2000/svg"><path fill="#B1B4C5" d="M469.84 180c90.048-90.528 236.432-90.528 326.832-0.128 89.152 88.688 90.512 232.016 4.112 322.752l-4.048 4.16-357.168 357.152a164.032 164.032 0 0 1-232.176 0 164.016 164.016 0 0 1-3.44-228.64l3.44-3.536 357.952-357.968a98.016 98.016 0 0 1 138.72 0 98.016 98.016 0 0 1 2.88 135.728l-2.88 2.992-264.48 264.496a32 32 0 0 1-47.136-43.216l1.872-2.032 264.48-264.496a34.016 34.016 0 0 0 0-48.208 34.016 34.016 0 0 0-46.144-1.92l-2.064 1.92L252.64 677.008a100.032 100.032 0 0 0 0 141.68 100.016 100.016 0 0 0 138.688 2.88l2.992-2.88 357.168-357.168c65.44-65.44 65.44-171.216 0-236.32-64.288-64.288-167.456-65.44-232.816-3.456l-3.52 3.44-263.696 263.696a32 32 0 0 1-47.136-43.216l1.872-2.032 263.648-263.648z" /></svg>