<?xml version="1.0" standalone="no"?><!DOCTYPE svg PUBLIC "-//W3C//DTD SVG 1.1//EN" "http://www.w3.org/Graphics/SVG/1.1/DTD/svg11.dtd"><svg t="1670312991643" class="icon" viewBox="0 0 1024 1024" version="1.1" xmlns="http://www.w3.org/2000/svg" p-id="2629" xmlns:xlink="http://www.w3.org/1999/xlink" width="200" height="200"><path d="M512 96c229.76 0 416 186.24 416 416S741.76 928 512 928 96 741.76 96 512 282.24 96 512 96z m0 160c-17.68 0-32 12.064-32 26.944V480H284.448l-2.128 0.08c-14.72 1.232-26.32 15.04-26.32 31.92 0 17.68 12.736 32 28.448 32H480v197.056l0.08 2c1.232 13.952 15.04 24.944 31.92 24.944 17.68 0 32-12.064 32-26.944V544h195.552l2.128-0.08C756.4 542.688 768 528.88 768 512c0-17.68-12.736-32-28.448-32H544V282.944l-0.08-2C542.688 266.992 528.88 256 512 256z" /></svg>