<?xml version="1.0" standalone="no"?><!DOCTYPE svg PUBLIC "-//W3C//DTD SVG 1.1//EN" "http://www.w3.org/Graphics/SVG/1.1/DTD/svg11.dtd"><svg t="1701399837247" class="icon" viewBox="0 0 1024 1024" version="1.1" xmlns="http://www.w3.org/2000/svg" p-id="3130" xmlns:xlink="http://www.w3.org/1999/xlink" width="200" height="200"><path d="M512 96c229.76 0 416 186.24 416 416S741.76 928 512 928 96 741.76 96 512 282.24 96 512 96z m0 64c-194.4 0-352 157.6-352 352s157.6 352 352 352 352-157.6 352-352-157.6-352-352-352z m3.328 513.36a32 32 0 1 1 0 64 32 32 0 0 1 0-64z m79.84-381.024c61.568 35.84 78.128 122.496 35.776 181.504-7.456 10.4-15.664 20.016-25.344 30.048l-6.096 6.176-26.704 25.68-5.824 5.76c-0.48 0.48-0.896 0.896-1.232 1.264-8.96 9.44-13.488 16.288-15.168 22.272-3.024 10.848-4.512 24.384-4.32 40.544a32 32 0 1 1-64 0.8c-0.256-21.872 1.904-41.376 6.672-58.528 4.56-16.368 13.28-30.288 26.624-45.088l5.072-5.408 9.408-9.28 25.344-24.384c9.6-9.616 17.12-18.176 23.568-27.168 20.704-28.864 12.4-72.368-15.968-88.864-33.12-19.28-75.488-13.696-94.512 9.456a88.896 88.896 0 0 0-20.352 52.16l-0.112 4.4a32 32 0 1 1-64 0c0-35.44 12.32-69.552 35.008-97.168 39.792-48.464 116.944-58.64 176.16-24.16z" p-id="3131"></path></svg>