<?xml version="1.0" standalone="no"?><!DOCTYPE svg PUBLIC "-//W3C//DTD SVG 1.1//EN" "http://www.w3.org/Graphics/SVG/1.1/DTD/svg11.dtd"><svg t="1677468512246" class="icon" viewBox="0 0 1024 1024" version="1.1" xmlns="http://www.w3.org/2000/svg" p-id="28280" xmlns:xlink="http://www.w3.org/1999/xlink" width="200" height="200"><path d="M512 96c229.76 0 416 186.24 416 416S741.76 928 512 928 96 741.76 96 512 282.24 96 512 96z m3.328 577.36a32 32 0 1 0 0 64 32 32 0 0 0 0-64z m79.84-381.024c-59.216-34.464-136.368-24.288-176.16 24.16A152.736 152.736 0 0 0 384 413.696a32 32 0 1 0 64 0l0.112-4.384a88.896 88.896 0 0 1 20.352-52.16c19.024-23.168 61.392-28.752 94.512-9.472 28.368 16.496 36.672 60 15.968 88.864-6.448 8.992-13.952 17.552-23.568 27.168l-25.344 24.368-9.408 9.28-5.072 5.44c-13.344 14.784-22.064 28.704-26.624 45.072-4.768 17.152-6.928 36.64-6.656 58.544a32 32 0 0 0 64-0.8c-0.208-16.16 1.28-29.712 4.32-40.56 1.664-5.984 6.208-12.848 15.152-22.272l1.232-1.28 5.824-5.744 26.704-25.68 6.096-6.176a266.416 266.416 0 0 0 25.344-30.048c42.352-59.008 25.792-145.664-35.776-181.504z" /></svg>