<?xml version="1.0" standalone="no"?><!DOCTYPE svg PUBLIC "-//W3C//DTD SVG 1.1//EN" "http://www.w3.org/Graphics/SVG/1.1/DTD/svg11.dtd"><svg class="icon" width="200px" height="200.00px" viewBox="0 0 1024 1024" version="1.1" xmlns="http://www.w3.org/2000/svg"><path fill="#B1B4C5" d="M512 122c215.4 0 390 174.6 390 390S727.4 902 512 902 122 727.4 122 512 296.6 122 512 122z m0 60c-182.25 0-330 147.75-330 330s147.75 330 330 330 330-147.75 330-330-147.75-330-330-330z m3.12 481.275a30 30 0 1 1 0 60 30 30 0 0 1 0-60z m74.85-357.21c57.72 33.6 73.245 114.84 33.54 170.16-6.99 9.75-14.685 18.765-23.76 28.17l-5.715 5.79-25.035 24.075-5.46 5.4c-0.45 0.45-0.84 0.84-1.155 1.185-8.4 8.85-12.645 15.27-14.22 20.88-2.835 10.17-4.23 22.86-4.05 38.01a30 30 0 1 1-60 0.75c-0.24-20.505 1.785-38.79 6.255-54.87 4.275-15.345 12.45-28.395 24.96-42.27l4.755-5.07 8.82-8.7 23.76-22.86c9-9.015 16.05-17.04 22.095-25.47 19.41-27.06 11.625-67.845-14.97-83.31-31.05-18.075-70.77-12.84-88.605 8.865a83.34 83.34 0 0 0-19.08 48.9l-0.105 4.125a30 30 0 1 1-60 0c0-33.225 11.55-65.205 32.82-91.095 37.305-45.435 109.635-54.975 165.15-22.65z" /></svg>