<?xml version="1.0" standalone="no"?><!DOCTYPE svg PUBLIC "-//W3C//DTD SVG 1.1//EN" "http://www.w3.org/Graphics/SVG/1.1/DTD/svg11.dtd"><svg class="icon" width="200px" height="200.00px" viewBox="0 0 1024 1024" version="1.1" xmlns="http://www.w3.org/2000/svg"><path fill="#B1B4C5" d="M817.504 315.424l1.248 1.92c-65.536-103.616-179.264-167.68-304-167.68-198.56 0-359.52 161.152-359.52 360 0 198.816 160.96 360 359.52 360 151.648 0 285.44-94.88 337.248-234.944a32 32 0 1 1 60.032 22.224c-61.056 164.96-218.624 276.704-397.28 276.704-233.92 0-423.52-189.84-423.52-424s189.6-424 423.52-424c141.28 0 270.64 69.824 348.96 183.632L944 189.024v220.48H723.44l94.064-94.08z" /></svg>