<?xml version="1.0" standalone="no"?><!DOCTYPE svg PUBLIC "-//W3C//DTD SVG 1.1//EN" "http://www.w3.org/Graphics/SVG/1.1/DTD/svg11.dtd"><svg class="icon" width="200px" height="200.00px" viewBox="0 0 1024 1024" version="1.1" xmlns="http://www.w3.org/2000/svg"><path fill="#B1B4C5" d="M587.04 114.448a30.768 30.768 0 0 1 36.16-16.016c64.272 18.512 123.04 52.896 171.616 99.872 9.472 9.184 12.048 23.36 6.4 35.296a92.576 92.576 0 0 0-8.848 39.76c0 49.456 38.08 89.072 84.432 89.072h1.152a30.768 30.768 0 0 1 29.92 21.872 444.96 444.96 0 0 1 18.896 128.752c0 29.28-2.816 58.176-8.368 86.416a30.768 30.768 0 0 1-33.328 24.672 81.328 81.328 0 0 0-8.272-0.416c-46.352 0-84.432 39.616-84.432 89.072a91.52 91.52 0 0 0 20.24 57.872 30.768 30.768 0 0 1-1.312 40.272c-49.536 53.536-111.632 93.12-180.448 114.448a30.768 30.768 0 0 1-38.512-20.352l-1.184-3.616c-12.208-34.592-43.68-57.968-79.152-57.968-36.688 0-69.104 25.008-80.336 61.584l-0.8 2.272a30.768 30.768 0 0 1-37.712 18.08c-68.816-21.312-130.912-60.912-180.448-114.448a30.768 30.768 0 0 1-1.312-40.272 91.52 91.52 0 0 0 20.24-57.872c0-49.456-38.08-89.072-84.432-89.072-2.784 0-5.552 0.144-8.272 0.416A30.768 30.768 0 0 1 105.6 599.472a447.68 447.68 0 0 1-8.368-86.416c0-44.144 6.416-87.424 18.896-128.752a30.768 30.768 0 0 1 29.92-21.872l4.528-0.064c44.8-1.872 81.056-40.752 81.056-89.008 0-14.032-3.056-27.536-8.848-39.76a30.768 30.768 0 0 1 6.4-35.296c48.576-46.976 107.36-81.36 171.616-99.872a30.768 30.768 0 0 1 36.16 16.016c14.448 29.504 43.248 48.24 75.04 48.24 31.792 0 60.592-18.736 75.04-48.24z m41.168 50.304l-0.688 0.96c-27.12 36.208-69.328 58.512-115.52 58.512-46.192 0-88.4-22.304-115.52-58.496l-0.704-0.976-1.008 0.368c-37.936 13.92-73.28 34.56-104.528 60.928l-3.52 3.008 0.384 1.232c3.424 11.856 5.44 24.192 5.936 36.768l0.128 6.304c0 74.192-52.096 136.192-121.008 148.432l-2.592 0.416-1.6 6.88a384.576 384.576 0 0 0-9.088 74.464l-0.112 9.504c0 15.792 0.96 31.456 2.832 46.928l0.4 2.976 1.984 0.208c71.552 8.432 127.056 70.144 129.12 145.28l0.064 4.352a154.08 154.08 0 0 1-16.272 69.184l-2.208 4.176 5.184 4.816a350.816 350.816 0 0 0 102.784 65.312l2.8 1.104 1.248-2.192c25.04-43.184 70.128-71.68 120.928-73.216l4.368-0.08c52.576 0 99.536 28.88 125.296 73.28l1.232 2.208 2.816-1.12a350.8 350.8 0 0 0 102.784-65.28l5.168-4.832-2.192-4.16a153.856 153.856 0 0 1-16.16-63.568l-0.112-5.632c0-77.088 56.256-141.04 129.184-149.632l1.968-0.208 0.416-2.976c1.504-12.368 2.4-24.88 2.72-37.472l0.112-9.456c0-28.576-3.104-56.704-9.2-83.984l-1.616-6.864-2.576-0.416c-67.568-12-118.96-71.84-120.96-144.08l-0.048-4.352c0-14.752 2.064-29.232 6.064-43.072l0.368-1.232-3.504-3.008a348.736 348.736 0 0 0-104.528-60.928l-1.024-0.368zM512 337.232c96.528 0 174.768 78.24 174.768 174.768S608.528 686.768 512 686.768 337.232 608.528 337.232 512 415.472 337.232 512 337.232z m0 61.536a113.232 113.232 0 1 0 0 226.464 113.232 113.232 0 0 0 0-226.464z" /></svg>