<?xml version="1.0" standalone="no"?><!DOCTYPE svg PUBLIC "-//W3C//DTD SVG 1.1//EN" "http://www.w3.org/Graphics/SVG/1.1/DTD/svg11.dtd"><svg t="1670292271608" class="icon" viewBox="0 0 1024 1024" version="1.1" xmlns="http://www.w3.org/2000/svg" p-id="3698" xmlns:xlink="http://www.w3.org/1999/xlink" width="200" height="200"><path d="M495.712 781.584l-183.136 94.464c-17.104 8.816-38.24 2.368-47.248-14.4a33.76 33.76 0 0 1-3.52-21.776l34.992-200.096a33.92 33.92 0 0 0-10.08-30.368L138.56 467.68a33.872 33.872 0 0 1-0.64-48.528 35.216 35.216 0 0 1 20.032-10.016l204.768-29.184a34.944 34.944 0 0 0 26.336-18.784l91.568-182.048c8.56-16.992 29.536-23.968 46.848-15.584 6.912 3.344 12.48 8.816 15.888 15.584l91.584 182.048a34.944 34.944 0 0 0 26.336 18.784l204.768 29.184c19.12 2.72 32.368 20.16 29.584 38.896-1.12 7.472-4.688 14.384-10.208 19.648l-148.16 141.712a33.92 33.92 0 0 0-10.064 30.368l34.976 200.096c3.264 18.672-9.52 36.416-28.56 39.632-7.584 1.28-15.376 0.064-22.192-3.456L528.272 781.6a35.584 35.584 0 0 0-32.56 0z" /></svg>