<?xml version="1.0" standalone="no"?><!DOCTYPE svg PUBLIC "-//W3C//DTD SVG 1.1//EN" "http://www.w3.org/Graphics/SVG/1.1/DTD/svg11.dtd"><svg class="icon" width="200px" height="200.00px" viewBox="0 0 1024 1024" version="1.1" xmlns="http://www.w3.org/2000/svg"><path fill="#B1B4C5" d="M292.688 304.64a32 32 0 1 1 0 64A143.36 143.36 0 0 0 149.328 512a143.36 143.36 0 0 0 139.136 143.296l4.224 0.064h229.52l-50.336-50.336a32 32 0 0 1 43.232-47.12l2.032 1.872 104.96 104.96a32.048 32.048 0 0 1 0.512 44.736l-0.48 0.48-104.96 105.376a32 32 0 0 1-47.2-43.12l1.872-2.048 50.592-50.816-229.744 0.016c-114.528 0-207.36-92.832-207.36-207.36 0-114.528 92.832-207.36 207.36-207.36z m258.576-96a32 32 0 0 1 1.872 43.2l-1.872 2.048-50.768 50.736 230.816 0.016c114.528 0 207.36 92.832 207.36 207.36 0 114.528-92.832 207.36-207.36 207.36a32 32 0 1 1 0-64 143.36 143.36 0 0 0 143.36-143.36 143.36 143.36 0 0 0-139.136-143.296l-4.224-0.064H500.72l50.496 50.288a32 32 0 0 1-43.12 47.2l-2.032-1.856-105.392-104.96-0.048-0.048-1.52-1.648-0.16-0.192-0.16-0.144 1.84 1.984a32 32 0 0 1-8.096-31.584l0.8-2.4a31.76 31.76 0 0 1 5.392-9.184l0.032-0.048 1.872-2.032 105.392-105.392a32 32 0 0 1 45.248 0z" /></svg>