<?xml version="1.0" standalone="no"?><!DOCTYPE svg PUBLIC "-//W3C//DTD SVG 1.1//EN" "http://www.w3.org/Graphics/SVG/1.1/DTD/svg11.dtd"><svg class="icon" width="200px" height="200.00px" viewBox="0 0 1024 1024" version="1.1" xmlns="http://www.w3.org/2000/svg"><path fill="#B1B4C5" d="M896 560a32 32 0 0 1 31.92 29.6L928 592v160c0 51.28-38.368 94.016-87.616 95.936l-3.456 0.064H187.072c-49.744 0-89.248-41.568-91.008-92.432L96 752V592a32 32 0 0 1 63.92-2.4L160 592v160c0 17.36 11.536 30.672 25.04 31.904l2.032 0.096h649.856c13.664 0 25.856-12.496 26.992-29.44L864 752V592a32 32 0 0 1 32-32zM513.52 167.312c7.744 0.32 15.408 3.424 21.328 9.344l181.024 181.024a32 32 0 0 1-45.264 45.248L544 276.32 544 591.552c0 15.328-14.32 27.744-32 27.744s-32-12.416-32-27.744l-0.016-314.8-126.16 126.176a32 32 0 0 1-45.248-45.248L489.584 176.64c5.92-5.92 13.6-9.04 21.344-9.344h2.592z" /></svg>