<?xml version="1.0" standalone="no"?><!DOCTYPE svg PUBLIC "-//W3C//DTD SVG 1.1//EN" "http://www.w3.org/Graphics/SVG/1.1/DTD/svg11.dtd"><svg class="icon" width="200px" height="200.00px" viewBox="0 0 1024 1024" version="1.1" xmlns="http://www.w3.org/2000/svg"><path fill="#B1B4C5" d="M720 656a144 144 0 0 1 144 144v112a32 32 0 0 1-32 32H192a32 32 0 0 1-32-32v-112a144 144 0 0 1 144-144h416z m0 64H304a80 80 0 0 0-79.92 76.528L224 800v80h576v-80a80 80 0 0 0-76.528-79.92L720 720zM512 80c141.392 0 256 114.608 256 256 0 139.696-111.904 253.28-250.96 255.952L512 592c-141.392 0-256-114.608-256-256 0-139.696 111.904-253.28 250.96-255.952L512 80z m0 64c-106.032 0-192 85.968-192 192s85.968 192 192 192 192-85.968 192-192S618.032 144 512 144z" /></svg>