<?xml version="1.0" standalone="no"?><!DOCTYPE svg PUBLIC "-//W3C//DTD SVG 1.1//EN" "http://www.w3.org/Graphics/SVG/1.1/DTD/svg11.dtd"><svg class="icon" width="200px" height="200.00px" viewBox="0 0 1024 1024" version="1.1" xmlns="http://www.w3.org/2000/svg"><path fill="#B1B4C5" d="M530.2109375 195.4953125c6.1171875 3.403125 11.165625 8.4515625 14.56875 14.56875l311.2734375 560.2921875a37.5046875 37.5046875 0 0 1-32.7796875 55.7015625H200.7265625a37.5046875 37.5046875 0 0 1-32.765625-55.7015625l311.259375-560.2921875a37.5046875 37.5046875 0 0 1 50.990625-14.56875z m-18.95625 446.821875a36.5625 36.5625 0 1 0 0 73.125 36.5625 36.5625 0 0 0 0-73.125zM546.6921875 469.8125h-70.3125l14.0625 150.0046875h42.1875l14.0625-150.0046875z" /></svg>
