<?xml version="1.0" standalone="no"?><!DOCTYPE svg PUBLIC "-//W3C//DTD SVG 1.1//EN" "http://www.w3.org/Graphics/SVG/1.1/DTD/svg11.dtd"><svg class="icon" width="200px" height="200.00px" viewBox="0 0 1024 1024" version="1.1" xmlns="http://www.w3.org/2000/svg"><path fill="#B1B4C5" d="M532.72 151.888c6.96 3.872 12.704 9.616 16.576 16.576l354.16 637.488a42.672 42.672 0 0 1-37.296 63.376H157.84a42.672 42.672 0 0 1-37.28-63.376l354.144-637.488a42.672 42.672 0 0 1 58.016-16.576z m-21.568 508.384a41.6 41.6 0 1 0 0 83.2 41.6 41.6 0 0 0 0-83.2zM551.472 464h-80l16 170.672h48l16-170.672z" /></svg>